<svg width="81" height="81" viewBox="0 0 81 81" fill="none" xmlns="http://www.w3.org/2000/svg">
<path d="M0 0.999999C0 0.447715 0.447715 0 1 0H32.8742C33.257 0 33.6062 0.218529 33.7736 0.562807L49.1006 32.0927C49.5646 33.0472 51 32.7168 51 31.6555V1C51 0.447716 51.4477 0 52 0H80C80.5523 0 81 0.447715 81 1V80C81 80.5523 80.5523 81 80 81H47.0803C46.7215 81 46.3901 80.8077 46.2121 80.4961L30.3682 52.7694C29.8595 51.8791 28.5 52.2401 28.5 53.2656V80C28.5 80.5523 28.0523 81 27.5 81H1C0.447715 81 0 80.5523 0 80V0.999999Z" fill="#4D79FF"/>
</svg>
